<?xml version="1.0" encoding="UTF-8"?>
<svg id="Layer_1" xmlns="http://www.w3.org/2000/svg" version="1.1" xmlns:serif="http://www.serif.com/" viewBox="0 0 595.3 841.9">
  <!-- Generator: Adobe Illustrator 30.1.0, SVG Export Plug-In . SVG Version: 2.1.1 Build 136)  -->
  <defs>
    <style>
      .st0 {
        fill: #fff;
        fill-rule: evenodd;
      }

      .st1 {
        fill: none;
        stroke: #000;
        stroke-miterlimit: 103.9;
        stroke-width: 26px;
      }
    </style>
  </defs>
  <path class="st0" d="M480.9,262.4l93.3,214.3c11.4,26.1-.8,57-26.9,68.4l-333.3,145.1c-26.1,11.4-57-.8-68.4-26.9l-93.3-214.3,428.6-186.5Z"/>
  <path class="st0" d="M52.3,448.9l-31.1-71.4c-11.4-26.1.8-57,26.9-68.3l333.3-145.1c26.1-11.4,57,.8,68.4,26.9l31.1,71.4L52.3,448.9Z"/>
  <path class="st1" d="M48.1,309.1l333.4-145.1c26.1-11.4,57,.8,68.3,26.9l124.4,285.7c11.4,26.1-.8,57-26.9,68.3l-333.4,145.1c-26.1,11.4-57-.8-68.3-26.9L21.2,377.5c-11.4-26.1.8-57,26.9-68.3ZM289.3,147.5l41.5,95.2M98.8,230.4l41.5,95.2M52.2,448.9l428.6-186.5"/>
  <g>
    <rect x="203" y="562.3" width="62.3" height="62.3" transform="translate(-217.4 142.7) rotate(-23.5)"/>
    <rect x="317.3" y="512.6" width="62.3" height="62.3" transform="translate(-188 184.2) rotate(-23.5)"/>
    <rect x="431.5" y="462.9" width="62.3" height="62.3" transform="translate(-158.7 225.7) rotate(-23.5)"/>
    <rect x="267.5" y="398.3" width="62.3" height="62.3" transform="translate(-146.6 154.9) rotate(-23.5)"/>
    <rect x="381.8" y="348.6" width="62.3" height="62.3" transform="translate(-117.2 196.3) rotate(-23.5)"/>
    <rect x="153.2" y="448" width="62.3" height="62.3" transform="translate(-175.9 113.4) rotate(-23.5)"/>
  </g>
</svg>